FFmpeg version SVN-r25716, Copyright (c) 2000-2010 the FFmpeg developers  built on Nov 10 2010 12:23:18 with gcc 4.1.2 20080704 (Red Hat 4.1.2-48)  configuration: --enable-libmp3lame --enable-shared --disable-mmx --arch=x86_64  libavutil     50.33. 0 / 50.33. 0  libavcore      0.12. 1 /  0.12. 1  libavcodec    52.94. 4 / 52.94. 4  libavformat   52.84. 0 / 52.84. 0  libavdevice   52. 2. 2 / 52. 2. 2  libavfilter    1.59. 0 /  1.59. 0  libswscale     0.12. 0 /  0.12. 0Seems stream 0 codec frame rate differs from container frame rate: 1000.00 (1000/1) -> 12.00 (12/1)Input #0, mov,mp4,m4a,3gp,3g2,mj2, from '/RAID10/data/converted_video_files/10729.mov':  Metadata:    major_brand     : qt      minor_version   : 537199360    compatible_brands: qt    Duration: 00:00:35.00, start: 0.000000, bitrate: 3651 kb/s    Stream #0.0(eng): Video: mpeg4, yuv420p, 678x518 [PAR 1:1 DAR 339:259], 3650 kb/s, 12 fps, 12 tbr, 600 tbn, 1k tbc[buffer @ 0x1195add0] w:678 h:518 pixfmt:yuv420pOutput #0, flv, to '/RAID10/data/converted_video_files/10729.flv':  Metadata:    encoder         : Lavf52.84.0    Stream #0.0(eng): Video: flv, yuv420p, 678x518 [PAR 1:1 DAR 339:259], q=2-31, 600 kb/s, 1k tbn, 24 tbcStream mapping:  Stream #0.0 -> #0.0Press [q] to stop encodingframe=   28 fps=  0 q=31.0 size=     301kB time=2.29 bitrate=1074.8kbits/s    frame=   48 fps= 46 q=31.0 size=     409kB time=3.96 bitrate= 846.8kbits/s    frame=   81 fps= 52 q=31.0 size=     554kB time=6.71 bitrate= 676.1kbits/s    frame=  118 fps= 58 q=31.0 size=     720kB time=9.79 bitrate= 602.3kbits/s    frame=  152 fps= 59 q=31.0 size=     877kB time=12.62 bitrate= 569.3kbits/s    frame=  174 fps= 56 q=29.1 size=     978kB time=14.46 bitrate= 554.2kbits/s    frame=  206 fps= 57 q=31.0 size=    1145kB time=17.12 bitrate= 547.9kbits/s    frame=  241 fps= 59 q=24.8 size=    1350kB time=20.04 bitrate= 551.9kbits/s    frame=  273 fps= 59 q=31.0 size=    1535kB time=22.71 bitrate= 553.7kbits/s    frame=  291 fps= 57 q=31.0 size=    1654kB time=24.21 bitrate= 559.7kbits/s    frame=  326 fps= 58 q=29.6 size=    1837kB time=27.12 bitrate= 554.7kbits/s    frame=  357 fps= 58 q=31.0 size=    1999kB time=29.71 bitrate= 551.2kbits/s    frame=  387 fps= 58 q=30.2 size=    2173kB time=32.21 bitrate= 552.7kbits/s    frame=  413 fps= 57 q=31.0 size=    2333kB time=34.37 bitrate= 556.0kbits/s    frame=  420 fps= 57 q=31.0 Lsize=    2378kB time=34.96 bitrate= 557.1kbits/s    video:2371kB audio:0kB global headers:0kB muxing overhead 0.285452%